<mxfile host="app.diagrams.net" modified="2023-07-26T19:21:08.212Z" agent="Mozilla/5.0 (Windows NT 10.0; Win64; x64) AppleWebKit/537.36 (KHTML, like Gecko) Chrome/115.0.0.0 Safari/537.36" etag="wD-vHXxx3GeGI3bCxjjO" version="21.6.5" type="device">
  <diagram id="Fae58t7T6GYvRqYH8ZGL" name="Página-1">
    <mxGraphModel dx="1050" dy="574" grid="1" gridSize="10" guides="1" tooltips="1" connect="1" arrows="1" fold="1" page="1" pageScale="1" pageWidth="827" pageHeight="1169" math="0" shadow="0">
      <root>
        <mxCell id="0" />
        <mxCell id="1" parent="0" />
        <mxCell id="njjs4OCkgifwEYSEYZWW-1" value="Construa a modelagem que represente pessoas e seus dados, observando que:&#xa;&#xa;&#xa;- uma pessoa pode ter vários telefones e vários emails, porém, pode possuir somente uma CNH." style="text;whiteSpace=wrap;" parent="1" vertex="1">
          <mxGeometry x="130" y="30" width="560" height="80" as="geometry" />
        </mxCell>
        <mxCell id="njjs4OCkgifwEYSEYZWW-7" style="edgeStyle=orthogonalEdgeStyle;rounded=0;orthogonalLoop=1;jettySize=auto;html=1;entryX=0.5;entryY=0;entryDx=0;entryDy=0;endArrow=none;endFill=0;" parent="1" source="njjs4OCkgifwEYSEYZWW-2" target="njjs4OCkgifwEYSEYZWW-3" edge="1">
          <mxGeometry relative="1" as="geometry" />
        </mxCell>
        <mxCell id="HZEHzv3eMozTv1yZaY8q-67" style="edgeStyle=orthogonalEdgeStyle;rounded=0;orthogonalLoop=1;jettySize=auto;html=1;entryX=0;entryY=0.5;entryDx=0;entryDy=0;endArrow=none;endFill=0;" parent="1" source="njjs4OCkgifwEYSEYZWW-2" target="HZEHzv3eMozTv1yZaY8q-66" edge="1">
          <mxGeometry relative="1" as="geometry" />
        </mxCell>
        <mxCell id="njjs4OCkgifwEYSEYZWW-2" value="Pessoa" style="rounded=0;whiteSpace=wrap;html=1;" parent="1" vertex="1">
          <mxGeometry x="220" y="200" width="120" height="60" as="geometry" />
        </mxCell>
        <mxCell id="njjs4OCkgifwEYSEYZWW-8" style="edgeStyle=orthogonalEdgeStyle;rounded=0;orthogonalLoop=1;jettySize=auto;html=1;entryX=0.5;entryY=0;entryDx=0;entryDy=0;endArrow=none;endFill=0;" parent="1" edge="1">
          <mxGeometry relative="1" as="geometry">
            <mxPoint x="280" y="410" as="sourcePoint" />
            <mxPoint x="440" y="450" as="targetPoint" />
          </mxGeometry>
        </mxCell>
        <mxCell id="njjs4OCkgifwEYSEYZWW-9" style="edgeStyle=orthogonalEdgeStyle;rounded=0;orthogonalLoop=1;jettySize=auto;html=1;entryX=0.5;entryY=0;entryDx=0;entryDy=0;exitX=0.5;exitY=1;exitDx=0;exitDy=0;endArrow=none;endFill=0;" parent="1" source="njjs4OCkgifwEYSEYZWW-3" target="njjs4OCkgifwEYSEYZWW-6" edge="1">
          <mxGeometry relative="1" as="geometry">
            <mxPoint x="240" y="350" as="sourcePoint" />
            <Array as="points">
              <mxPoint x="280" y="410" />
              <mxPoint x="110" y="410" />
            </Array>
          </mxGeometry>
        </mxCell>
        <mxCell id="njjs4OCkgifwEYSEYZWW-3" value="possui" style="rhombus;whiteSpace=wrap;html=1;" parent="1" vertex="1">
          <mxGeometry x="240" y="310" width="80" height="80" as="geometry" />
        </mxCell>
        <mxCell id="njjs4OCkgifwEYSEYZWW-5" value="Email" style="rounded=0;whiteSpace=wrap;html=1;" parent="1" vertex="1">
          <mxGeometry x="380" y="430" width="120" height="60" as="geometry" />
        </mxCell>
        <mxCell id="njjs4OCkgifwEYSEYZWW-6" value="Telefone" style="rounded=0;whiteSpace=wrap;html=1;" parent="1" vertex="1">
          <mxGeometry x="50" y="440" width="120" height="60" as="geometry" />
        </mxCell>
        <mxCell id="njjs4OCkgifwEYSEYZWW-11" value="1" style="text;html=1;strokeColor=none;fillColor=none;align=center;verticalAlign=middle;whiteSpace=wrap;rounded=0;" parent="1" vertex="1">
          <mxGeometry x="280" y="260" width="20" height="30" as="geometry" />
        </mxCell>
        <mxCell id="njjs4OCkgifwEYSEYZWW-13" value="N" style="text;html=1;strokeColor=none;fillColor=none;align=center;verticalAlign=middle;whiteSpace=wrap;rounded=0;" parent="1" vertex="1">
          <mxGeometry x="442" y="400" width="20" height="30" as="geometry" />
        </mxCell>
        <mxCell id="njjs4OCkgifwEYSEYZWW-14" value="N" style="text;html=1;strokeColor=none;fillColor=none;align=center;verticalAlign=middle;whiteSpace=wrap;rounded=0;" parent="1" vertex="1">
          <mxGeometry x="110" y="410" width="20" height="30" as="geometry" />
        </mxCell>
        <mxCell id="HZEHzv3eMozTv1yZaY8q-1" value="CONCEITUAL" style="rounded=1;whiteSpace=wrap;html=1;fillColor=#f8cecc;strokeColor=#b85450;" parent="1" vertex="1">
          <mxGeometry x="220" y="110" width="120" height="60" as="geometry" />
        </mxCell>
        <mxCell id="HZEHzv3eMozTv1yZaY8q-2" value="FISICO" style="rounded=1;whiteSpace=wrap;html=1;fillColor=#f8cecc;strokeColor=#b85450;" parent="1" vertex="1">
          <mxGeometry x="1424.5" y="110" width="120" height="60" as="geometry" />
        </mxCell>
        <mxCell id="HZEHzv3eMozTv1yZaY8q-3" value="LOGICO" style="rounded=1;whiteSpace=wrap;html=1;fillColor=#f8cecc;strokeColor=#b85450;" parent="1" vertex="1">
          <mxGeometry x="820" y="110" width="120" height="60" as="geometry" />
        </mxCell>
        <mxCell id="HZEHzv3eMozTv1yZaY8q-4" value="Pessoa" style="shape=table;startSize=30;container=1;collapsible=1;childLayout=tableLayout;fixedRows=1;rowLines=0;fontStyle=1;align=center;resizeLast=1;html=1;" parent="1" vertex="1">
          <mxGeometry x="600" y="240" width="180" height="120" as="geometry" />
        </mxCell>
        <mxCell id="HZEHzv3eMozTv1yZaY8q-5" value="" style="shape=tableRow;horizontal=0;startSize=0;swimlaneHead=0;swimlaneBody=0;fillColor=none;collapsible=0;dropTarget=0;points=[[0,0.5],[1,0.5]];portConstraint=eastwest;top=0;left=0;right=0;bottom=1;" parent="HZEHzv3eMozTv1yZaY8q-4" vertex="1">
          <mxGeometry y="30" width="180" height="30" as="geometry" />
        </mxCell>
        <mxCell id="HZEHzv3eMozTv1yZaY8q-6" value="PK" style="shape=partialRectangle;connectable=0;fillColor=none;top=0;left=0;bottom=0;right=0;fontStyle=1;overflow=hidden;whiteSpace=wrap;html=1;" parent="HZEHzv3eMozTv1yZaY8q-5" vertex="1">
          <mxGeometry width="30" height="30" as="geometry">
            <mxRectangle width="30" height="30" as="alternateBounds" />
          </mxGeometry>
        </mxCell>
        <mxCell id="HZEHzv3eMozTv1yZaY8q-7" value="IdPessoa" style="shape=partialRectangle;connectable=0;fillColor=none;top=0;left=0;bottom=0;right=0;align=left;spacingLeft=6;fontStyle=5;overflow=hidden;whiteSpace=wrap;html=1;" parent="HZEHzv3eMozTv1yZaY8q-5" vertex="1">
          <mxGeometry x="30" width="150" height="30" as="geometry">
            <mxRectangle width="150" height="30" as="alternateBounds" />
          </mxGeometry>
        </mxCell>
        <mxCell id="HZEHzv3eMozTv1yZaY8q-8" value="" style="shape=tableRow;horizontal=0;startSize=0;swimlaneHead=0;swimlaneBody=0;fillColor=none;collapsible=0;dropTarget=0;points=[[0,0.5],[1,0.5]];portConstraint=eastwest;top=0;left=0;right=0;bottom=0;" parent="HZEHzv3eMozTv1yZaY8q-4" vertex="1">
          <mxGeometry y="60" width="180" height="30" as="geometry" />
        </mxCell>
        <mxCell id="HZEHzv3eMozTv1yZaY8q-9" value="" style="shape=partialRectangle;connectable=0;fillColor=none;top=0;left=0;bottom=0;right=0;editable=1;overflow=hidden;whiteSpace=wrap;html=1;" parent="HZEHzv3eMozTv1yZaY8q-8" vertex="1">
          <mxGeometry width="30" height="30" as="geometry">
            <mxRectangle width="30" height="30" as="alternateBounds" />
          </mxGeometry>
        </mxCell>
        <mxCell id="HZEHzv3eMozTv1yZaY8q-10" value="Nome" style="shape=partialRectangle;connectable=0;fillColor=none;top=0;left=0;bottom=0;right=0;align=left;spacingLeft=6;overflow=hidden;whiteSpace=wrap;html=1;" parent="HZEHzv3eMozTv1yZaY8q-8" vertex="1">
          <mxGeometry x="30" width="150" height="30" as="geometry">
            <mxRectangle width="150" height="30" as="alternateBounds" />
          </mxGeometry>
        </mxCell>
        <mxCell id="HZEHzv3eMozTv1yZaY8q-69" style="shape=tableRow;horizontal=0;startSize=0;swimlaneHead=0;swimlaneBody=0;fillColor=none;collapsible=0;dropTarget=0;points=[[0,0.5],[1,0.5]];portConstraint=eastwest;top=0;left=0;right=0;bottom=0;" parent="HZEHzv3eMozTv1yZaY8q-4" vertex="1">
          <mxGeometry y="90" width="180" height="30" as="geometry" />
        </mxCell>
        <mxCell id="HZEHzv3eMozTv1yZaY8q-70" style="shape=partialRectangle;connectable=0;fillColor=none;top=0;left=0;bottom=0;right=0;editable=1;overflow=hidden;whiteSpace=wrap;html=1;" parent="HZEHzv3eMozTv1yZaY8q-69" vertex="1">
          <mxGeometry width="30" height="30" as="geometry">
            <mxRectangle width="30" height="30" as="alternateBounds" />
          </mxGeometry>
        </mxCell>
        <mxCell id="HZEHzv3eMozTv1yZaY8q-71" value="Cnh" style="shape=partialRectangle;connectable=0;fillColor=none;top=0;left=0;bottom=0;right=0;align=left;spacingLeft=6;overflow=hidden;whiteSpace=wrap;html=1;" parent="HZEHzv3eMozTv1yZaY8q-69" vertex="1">
          <mxGeometry x="30" width="150" height="30" as="geometry">
            <mxRectangle width="150" height="30" as="alternateBounds" />
          </mxGeometry>
        </mxCell>
        <mxCell id="HZEHzv3eMozTv1yZaY8q-30" value="Telefone" style="shape=table;startSize=30;container=1;collapsible=1;childLayout=tableLayout;fixedRows=1;rowLines=0;fontStyle=1;align=center;resizeLast=1;html=1;whiteSpace=wrap;" parent="1" vertex="1">
          <mxGeometry x="920" y="240" width="180" height="120" as="geometry" />
        </mxCell>
        <mxCell id="HZEHzv3eMozTv1yZaY8q-31" value="" style="shape=tableRow;horizontal=0;startSize=0;swimlaneHead=0;swimlaneBody=0;fillColor=none;collapsible=0;dropTarget=0;points=[[0,0.5],[1,0.5]];portConstraint=eastwest;top=0;left=0;right=0;bottom=0;html=1;" parent="HZEHzv3eMozTv1yZaY8q-30" vertex="1">
          <mxGeometry y="30" width="180" height="30" as="geometry" />
        </mxCell>
        <mxCell id="HZEHzv3eMozTv1yZaY8q-32" value="PK" style="shape=partialRectangle;connectable=0;fillColor=none;top=0;left=0;bottom=0;right=0;fontStyle=1;overflow=hidden;html=1;whiteSpace=wrap;" parent="HZEHzv3eMozTv1yZaY8q-31" vertex="1">
          <mxGeometry width="60" height="30" as="geometry">
            <mxRectangle width="60" height="30" as="alternateBounds" />
          </mxGeometry>
        </mxCell>
        <mxCell id="HZEHzv3eMozTv1yZaY8q-33" value="IdTelefone" style="shape=partialRectangle;connectable=0;fillColor=none;top=0;left=0;bottom=0;right=0;align=left;spacingLeft=6;fontStyle=5;overflow=hidden;html=1;whiteSpace=wrap;" parent="HZEHzv3eMozTv1yZaY8q-31" vertex="1">
          <mxGeometry x="60" width="120" height="30" as="geometry">
            <mxRectangle width="120" height="30" as="alternateBounds" />
          </mxGeometry>
        </mxCell>
        <mxCell id="HZEHzv3eMozTv1yZaY8q-34" value="" style="shape=tableRow;horizontal=0;startSize=0;swimlaneHead=0;swimlaneBody=0;fillColor=none;collapsible=0;dropTarget=0;points=[[0,0.5],[1,0.5]];portConstraint=eastwest;top=0;left=0;right=0;bottom=1;html=1;" parent="HZEHzv3eMozTv1yZaY8q-30" vertex="1">
          <mxGeometry y="60" width="180" height="30" as="geometry" />
        </mxCell>
        <mxCell id="HZEHzv3eMozTv1yZaY8q-35" value="FK" style="shape=partialRectangle;connectable=0;fillColor=none;top=0;left=0;bottom=0;right=0;fontStyle=1;overflow=hidden;html=1;whiteSpace=wrap;" parent="HZEHzv3eMozTv1yZaY8q-34" vertex="1">
          <mxGeometry width="60" height="30" as="geometry">
            <mxRectangle width="60" height="30" as="alternateBounds" />
          </mxGeometry>
        </mxCell>
        <mxCell id="HZEHzv3eMozTv1yZaY8q-36" value="IdPessoa" style="shape=partialRectangle;connectable=0;fillColor=none;top=0;left=0;bottom=0;right=0;align=left;spacingLeft=6;fontStyle=5;overflow=hidden;html=1;whiteSpace=wrap;" parent="HZEHzv3eMozTv1yZaY8q-34" vertex="1">
          <mxGeometry x="60" width="120" height="30" as="geometry">
            <mxRectangle width="120" height="30" as="alternateBounds" />
          </mxGeometry>
        </mxCell>
        <mxCell id="HZEHzv3eMozTv1yZaY8q-37" value="" style="shape=tableRow;horizontal=0;startSize=0;swimlaneHead=0;swimlaneBody=0;fillColor=none;collapsible=0;dropTarget=0;points=[[0,0.5],[1,0.5]];portConstraint=eastwest;top=0;left=0;right=0;bottom=0;html=1;" parent="HZEHzv3eMozTv1yZaY8q-30" vertex="1">
          <mxGeometry y="90" width="180" height="30" as="geometry" />
        </mxCell>
        <mxCell id="HZEHzv3eMozTv1yZaY8q-38" value="" style="shape=partialRectangle;connectable=0;fillColor=none;top=0;left=0;bottom=0;right=0;editable=1;overflow=hidden;html=1;whiteSpace=wrap;" parent="HZEHzv3eMozTv1yZaY8q-37" vertex="1">
          <mxGeometry width="60" height="30" as="geometry">
            <mxRectangle width="60" height="30" as="alternateBounds" />
          </mxGeometry>
        </mxCell>
        <mxCell id="HZEHzv3eMozTv1yZaY8q-39" value="NumeroTelefone" style="shape=partialRectangle;connectable=0;fillColor=none;top=0;left=0;bottom=0;right=0;align=left;spacingLeft=6;overflow=hidden;html=1;whiteSpace=wrap;" parent="HZEHzv3eMozTv1yZaY8q-37" vertex="1">
          <mxGeometry x="60" width="120" height="30" as="geometry">
            <mxRectangle width="120" height="30" as="alternateBounds" />
          </mxGeometry>
        </mxCell>
        <mxCell id="HZEHzv3eMozTv1yZaY8q-43" value="Email" style="shape=table;startSize=30;container=1;collapsible=1;childLayout=tableLayout;fixedRows=1;rowLines=0;fontStyle=1;align=center;resizeLast=1;html=1;whiteSpace=wrap;" parent="1" vertex="1">
          <mxGeometry x="920" y="390" width="180" height="120" as="geometry" />
        </mxCell>
        <mxCell id="HZEHzv3eMozTv1yZaY8q-44" value="" style="shape=tableRow;horizontal=0;startSize=0;swimlaneHead=0;swimlaneBody=0;fillColor=none;collapsible=0;dropTarget=0;points=[[0,0.5],[1,0.5]];portConstraint=eastwest;top=0;left=0;right=0;bottom=0;html=1;" parent="HZEHzv3eMozTv1yZaY8q-43" vertex="1">
          <mxGeometry y="30" width="180" height="30" as="geometry" />
        </mxCell>
        <mxCell id="HZEHzv3eMozTv1yZaY8q-45" value="PK" style="shape=partialRectangle;connectable=0;fillColor=none;top=0;left=0;bottom=0;right=0;fontStyle=1;overflow=hidden;html=1;whiteSpace=wrap;" parent="HZEHzv3eMozTv1yZaY8q-44" vertex="1">
          <mxGeometry width="60" height="30" as="geometry">
            <mxRectangle width="60" height="30" as="alternateBounds" />
          </mxGeometry>
        </mxCell>
        <mxCell id="HZEHzv3eMozTv1yZaY8q-46" value="IdEmail" style="shape=partialRectangle;connectable=0;fillColor=none;top=0;left=0;bottom=0;right=0;align=left;spacingLeft=6;fontStyle=5;overflow=hidden;html=1;whiteSpace=wrap;" parent="HZEHzv3eMozTv1yZaY8q-44" vertex="1">
          <mxGeometry x="60" width="120" height="30" as="geometry">
            <mxRectangle width="120" height="30" as="alternateBounds" />
          </mxGeometry>
        </mxCell>
        <mxCell id="HZEHzv3eMozTv1yZaY8q-47" value="" style="shape=tableRow;horizontal=0;startSize=0;swimlaneHead=0;swimlaneBody=0;fillColor=none;collapsible=0;dropTarget=0;points=[[0,0.5],[1,0.5]];portConstraint=eastwest;top=0;left=0;right=0;bottom=1;html=1;" parent="HZEHzv3eMozTv1yZaY8q-43" vertex="1">
          <mxGeometry y="60" width="180" height="30" as="geometry" />
        </mxCell>
        <mxCell id="HZEHzv3eMozTv1yZaY8q-48" value="FK" style="shape=partialRectangle;connectable=0;fillColor=none;top=0;left=0;bottom=0;right=0;fontStyle=1;overflow=hidden;html=1;whiteSpace=wrap;" parent="HZEHzv3eMozTv1yZaY8q-47" vertex="1">
          <mxGeometry width="60" height="30" as="geometry">
            <mxRectangle width="60" height="30" as="alternateBounds" />
          </mxGeometry>
        </mxCell>
        <mxCell id="HZEHzv3eMozTv1yZaY8q-49" value="IdPessoa" style="shape=partialRectangle;connectable=0;fillColor=none;top=0;left=0;bottom=0;right=0;align=left;spacingLeft=6;fontStyle=5;overflow=hidden;html=1;whiteSpace=wrap;" parent="HZEHzv3eMozTv1yZaY8q-47" vertex="1">
          <mxGeometry x="60" width="120" height="30" as="geometry">
            <mxRectangle width="120" height="30" as="alternateBounds" />
          </mxGeometry>
        </mxCell>
        <mxCell id="HZEHzv3eMozTv1yZaY8q-50" value="" style="shape=tableRow;horizontal=0;startSize=0;swimlaneHead=0;swimlaneBody=0;fillColor=none;collapsible=0;dropTarget=0;points=[[0,0.5],[1,0.5]];portConstraint=eastwest;top=0;left=0;right=0;bottom=0;html=1;" parent="HZEHzv3eMozTv1yZaY8q-43" vertex="1">
          <mxGeometry y="90" width="180" height="30" as="geometry" />
        </mxCell>
        <mxCell id="HZEHzv3eMozTv1yZaY8q-51" value="" style="shape=partialRectangle;connectable=0;fillColor=none;top=0;left=0;bottom=0;right=0;editable=1;overflow=hidden;html=1;whiteSpace=wrap;" parent="HZEHzv3eMozTv1yZaY8q-50" vertex="1">
          <mxGeometry width="60" height="30" as="geometry">
            <mxRectangle width="60" height="30" as="alternateBounds" />
          </mxGeometry>
        </mxCell>
        <mxCell id="HZEHzv3eMozTv1yZaY8q-52" value="EnderecoEmail" style="shape=partialRectangle;connectable=0;fillColor=none;top=0;left=0;bottom=0;right=0;align=left;spacingLeft=6;overflow=hidden;html=1;whiteSpace=wrap;" parent="HZEHzv3eMozTv1yZaY8q-50" vertex="1">
          <mxGeometry x="60" width="120" height="30" as="geometry">
            <mxRectangle width="120" height="30" as="alternateBounds" />
          </mxGeometry>
        </mxCell>
        <mxCell id="HZEHzv3eMozTv1yZaY8q-65" value="" style="edgeStyle=entityRelationEdgeStyle;fontSize=12;html=1;endArrow=ERoneToMany;rounded=0;exitX=1;exitY=0.5;exitDx=0;exitDy=0;entryX=0;entryY=0.5;entryDx=0;entryDy=0;" parent="1" source="HZEHzv3eMozTv1yZaY8q-5" target="HZEHzv3eMozTv1yZaY8q-34" edge="1">
          <mxGeometry width="100" height="100" relative="1" as="geometry">
            <mxPoint x="760" y="420" as="sourcePoint" />
            <mxPoint x="860" y="320" as="targetPoint" />
            <Array as="points">
              <mxPoint x="640" y="350" />
              <mxPoint x="690" y="360" />
              <mxPoint x="630" y="350" />
              <mxPoint x="630" y="340" />
            </Array>
          </mxGeometry>
        </mxCell>
        <mxCell id="HZEHzv3eMozTv1yZaY8q-66" value="Cnh" style="ellipse;whiteSpace=wrap;html=1;" parent="1" vertex="1">
          <mxGeometry x="414" y="205" width="76" height="50" as="geometry" />
        </mxCell>
        <mxCell id="HZEHzv3eMozTv1yZaY8q-72" value="" style="edgeStyle=entityRelationEdgeStyle;fontSize=12;html=1;endArrow=ERoneToMany;rounded=0;exitX=1.002;exitY=0.773;exitDx=0;exitDy=0;entryX=0;entryY=0.5;entryDx=0;entryDy=0;exitPerimeter=0;" parent="1" source="HZEHzv3eMozTv1yZaY8q-5" target="HZEHzv3eMozTv1yZaY8q-47" edge="1">
          <mxGeometry width="100" height="100" relative="1" as="geometry">
            <mxPoint x="780" y="440" as="sourcePoint" />
            <mxPoint x="860" y="475" as="targetPoint" />
            <Array as="points">
              <mxPoint x="640" y="505" />
              <mxPoint x="690" y="515" />
              <mxPoint x="630" y="505" />
              <mxPoint x="630" y="495" />
            </Array>
          </mxGeometry>
        </mxCell>
        <mxCell id="_3Ua2iajrJgnPaGgp_mE-1" value="" style="shape=image;verticalLabelPosition=bottom;labelBackgroundColor=default;verticalAlign=top;aspect=fixed;imageAspect=0;image=data:image/png,iVBORw0KGgoAAAANSUhEUgAAA7UAAADXCAYAAADFjXb5AAAAAXNSR0IArs4c6QAAAARnQU1BAACxjwv8YQUAAAAJcEhZcwAADsMAAA7DAcdvqGQAAC/ASURBVHhe7d27bttI28Dxx99V2IATQ8C226SyDGxjIBewEhwgcvUiZbognZ0Ujt0F6bYMtrIMrGHtBSzgZgErVZq0CwiODdh3oW9OJIfkUKKOFsX/D2Ai0RRPQ3L4cA7cGCqS8fPnT3n+/Ln7hrog3euJdK8n0r2eSPd6It3riXTHqljGsfh/7n8AAAAAACqHoBYAAAAAUFkEtQAAAACAyiKoBQAAAABUFkEtAAAAAKCyCGoBAAAAAJVFUAsAAAAAqCyCWgAAAABAZRHUAgAAAAAqi6AWAAAAAFBZG7e3t0P3Obazs+M+AQDWlbr+u0+oC/J3AMBTWPQ9x8ZQcZ9jGxsbEhgNAFgTXOfriXQHACzbMvIeqh8DAAAAACqLoBYAAAAAUFkEtQAAAACAyiKoBQAAAABUFkEtAAAAAKCyCGoBAAAAAJVFUIuV9HjRNt1/Fw3ti0c3JQAAWHvfzoL3A9nh7JubvkB8f/GqK5PeSWTvTbgXAVYHQS0qqdfZIjMBAADLcd+Vt52e+2K9aGy6TwCeGkEtVtvBuTwMh+aFzdFwc2L/1Ot8lb79CAAA1tnuUfBeQE5uUuOPdt34hWnJ+d2ylgWgLIJaVE7z5an79F0G9+6jMr5aUF/OvL+bIVD9qP8pM81GW7reciL5KtJnwSA7P7/wdAAAYFbZvL5knput3vwp+ZXJ758dii2n7cnhM/X31P1D/v4ifQ+S/F1Xj07fF4TuMabcBqDGCGpRMY/S/XLsPr+Qxrb9pDOIrUy1IF1FOcmUdAaxJ9EvY5eHsuVlXHo+ex/dl5jOwPwMRa3Dq/zyRM19L5M5heenpyODAgBgru670s7l9fm8OcsErc3MHcLHvXLtbk0wnL+/SN+DJI6b2fuCzD3GlNsA1B1BLVabDjpTTyu35PDS/qnVfSNN/UFlKDaDOJWbuArSjfqmfPxsM4H7gXzX371qQ8O+K/GNplFZ1+CHGaPm/ZCej8pQPkdPXb99jdfhtB8t70HOD/QYlTm9c5mgypg+Z9crWmamlBkAAMziUbrvbGlqkocP5aHbUmNU3vxnwaPkuK2sd38Q5enqHuTrN5HN11cyvDtXU2huur86sqmXGT1o95tLxfcXe4GOq0L3BMdybaabchsAENSiimyGcvXadtDwOLDhqn2SGQW/0VPOnlz9q0LM7Ya8cN9NtSH9xHM7ap9zJR1T4rspjV/NRPYJq5pP+6IhRy5TiZbX/8dlYCc3XnuaTem8c5nT5ZVc64B1uyNX5rdH0jRPXtVys0+CAQDAHAxk4B44R3m4HuJaVR+vwzWk7gcmiEzuD/SQPEA//mdEIHl/LVdmOnVf8kUHuc7uG/egO//7+IG8trvvHpxHptwGAAS1WHGBjqKSINQa/Ocu9iM15Sh+yqr5mVdS7af5ISpxtfxMxT5t9Upzf2nYDxEVOCfz12w1ZfP7uC0OAACYu7hG1mSSB+NTiAPipDmUlTwkzxrZY/KU2wCAoBZroPGLCyWDAXBSwpqUnOrBD169qsW6xPWv5Le2yo91/EVXK/ZKc/8b2A+ROHOzHi/e5qspx1WNAADA3MQ1svymQf5wlJSQejYb8a+8Jkze8CH0Kyd+mJ1tUpQ8AJ/IlNsAgKAWayDOkFzbFyOq7ht1rBD3ahh1tKCD1ySwtQFq0ttg1GuhbkcTB7aXA9FTxUF0qq2M366mLfvbXgmyCrbfuGrKcdVlAAAwRw1pRFV+zUNoK+5pONBpkxEHpv4D7nRvxYXiILSX9Keh+X1vvJwkDJ1yGwCIfvKTUzAaWBoVSJrjUAWEwwc3rtjDUAWndvrscHIzfhppDc/v3FTRcgNDqxutSbl5Dfungb9Hgzcd8AT0cYj6Id2xLm5OXH4a5/NKYb4byOe9+4t4XtnBvwe5Ox+q4FeNz+Tfo/L6eN1uhqdu3GnfjTIC40tsA1A1+hheNEpqsQZsleH4RewR/UL2uNpQwTS6c4e7pI2u6eEwUEVY90IYV2N28/KrJhum+rPX3nf3KDONrtqU9JJsOrACAADzofLdpJfiSDqfD2l+KMjTTQ/HY+hlxm9KSJjqw6OqLheZchuAutvQka37HNNVHAKjAQBrgut8PZHuAIBlW0beQ0ktAAAAAKCyCGoBAAAAAJVFUAsAAAAAqCyCWgAAAABAZRHUAgAAAAAqa+P29jbXFdXOzo77BABYV+r67z6hLsjfAQBPYdH3HLzSBzHSvZ5I93oi3euJdK8n0r2eSHesimUci1Q/BgAAAABUFkEtAAAAAKCyCGoBAAAAAJVFUAsAAAAAqCyCWgAAAABAZRHUAgAAAAAqa6WC2v6nDdnYOJO++x72KN1XarpXXfXJ+75RMMTTYW18O7Np+6ngSHF/P/vmvqNWHi/a6WvAtMeCOY7a0r133wGMFl2bx+bjfTnLnpvxb0cP487l+PyfIu/PXjvaF9w9TCe5Lxu3D3Ppdd+VtpcGuYF7uifhnxu5c9BLs3W877Kxybhh3DXPm0/RvesIXJvKWZ+S2oNzeRgOzTuQkuFGTi8PZavEwYYK+ri3lhdQTMveKG91XsiNfx3on8pxc7qMBEBNqBvzt52e+2K9aGy6T1gZ+p6OwPZJHTe5p14qrk2lrXn146YcqRtadQrKNcHPWuLiCkuXDOzJsXm4daTOfM/ukQlseQgCrDB9nnoPo25O3PiTm9T4o103fmFacn63rGWhWJIO8WDu5xQV2H7lWv6EjmWvRg+Jmx/84/BG3FEop31/fOa+YyG4No1TgaA2qaZki+2v3fiSthvqMBD5Pkie62WL8XMlOIHqL+mb4UCV58AJPnY5Sm4aqjuWdtrXF5eyF9fMcZTZzzYdVICcqQJn0j1zPOSrfeSPB4KnJfv2VQ4v1THxriPB55e7+3KjMqA32zbt4vQem7ZK9npQo8wcmId0PjdrHpe9lpd8sJmt3uydx2b9nh2KLQvpyeEz9fdUaWB2mdlrRfJ3fe1PV1cMbe+U21B5me2e9FqqruNRQDHqni5/Hc+nX6gac76aacGxOvYe0crPb43S+ePnkedxUVXb7Hj/ezod3b7K7Ov8fh59LsXzVOnd9+afzCd/bExdtXfENWakWa5NY4/FZPtKXZum3YZVoSL+nILRC3dzImrZp8Mb9314dz5UAelQTuIxbho1HJwPH8yYh+H5gf89o39qpj/t26/2963h+Z39rsYM1UUyWYZbZqvrzc3MI/pNaHl2Hv5vCpfj/e6h21LTeNur5PbBEj1Vuk/MT9NM+hrZcYHjyO77ZJrou58+8bHmp0duefl0Da7TCtPrWnU2/fzzbbRQemePiSgdQ9ek1PWhotYh3TG5haZ74JyJz7WCoeg6GV9/vet2fC3PDcm5P+rczg1umuDfo9/H2xQY4nVz+UDhkL+G5Kcpf/2ahl7G8rj7JLXM5Fo5Zh9F+zveP/n94adTdNwk+XRmKJM23rFVOJ/M/dio4zl/Dxga0vNbNL3MeUi2uzVsubTNp1kgXfzzV8mOL95PajhQy8qNn+xcCqeXm0epczsrOZ78a1fhceFdh0L7ZNzvgn8f9Tc3lD7vvP1ZZhtmoee1aMElLGPBITbBkx2c/W5lg8pRQa1LzOhv7gTI3ZD6QYj5PCpzsfMceVPrlpPLrP3lFM2n6LdL8FTpPrHUfgwcJ6G/546P9HFjT+ZMumfmY6XTLfg7JXzsrqbKpPsIk+7vcLplzslg+rvjpjDDq451SHdMbqHp7s6Z5Fx0ebAevHPGnq92KMrr4mni34UCpehcTqaLv2fy/fT5nswrXv6Y6VJ5SLyd0e+97QzkRcl05bZhEfT8lye/nfE2+vs33udqyKXXiCGaNne8aVFauOWE0jX+XTQulC5JmobG+WmV27Z4maFjwVuPJdDLnIdkG9U2eWlk9o33PTqf8uevlR2fXAuS/ZIsy9v3U55LwXkZZc/trOQYiP8eOsa8+Rfuk5K/C09X8lj0pxt1bSq7LjPQ81m0Fa5+/CiDH+q/k/1MPfVNafzqPvpMh1BekbkZ9uRYt8f5y1ZJfPz3SnrSkvZvmQqKrkqLqc5iPrsi/mCxe1P2T0R6nS01/4KqJPcDs5zGtvse8Zej2/uqNL56bdclrhIQVzNAWc0Po6ohu+Po10amWuqm7P+uTuHLgQzcGJEX+TQb6VGu/1apddCW/czvmi9NSstgpmp2WKwy6R04j7Ufg1zVNQAZ367VlVlryfn/kpzcXrMnpa7Vl/aTzX9tnrkVdaDy8XpEfqy5fN38bss0V9CO/xlRve7+Wq7MdGr9v3hNG3bfiLrZM7K/b3XfJPcsXnVZa8ptqDyXV2on76UTXVO3O/JHV+XDE1CBSXJPN/huR+r83+1Lc99nxvXk6l91ld5uqCu9/W7Tvy3d7aj99pVbl+S+MkqX9kXD3KPp6aL7tOR4PpWbD8nxvPn6vUvnaJkduTK/PZJmVD20aX+5FtT2vXdt3nudr/M5Zr37qM2GTTF93sX36zOfS6fyPkpHbYpzu9C015hZrk1lj0XPyGvTLOuyQlY4qE0O2KzGL4GLYLD3YzV4iW35CRYN0UVQs8HmjT5hP+4l03gBk2k07jqgSi6kSYCbXGhH89sP7H10DcDvztUphsm4DsGCHQEVH0dzE3qgsk4ZWAXYa8J8HiL0/ksecwCYh0kfGAaom65yOWta2fw4KL7Ry65/wcN1ZWSvpFNuwzpp/dJwn8ZJOsXxhzjAVAb/uQBmJHV/kLqv8u8Bk/u25oeHOJjR/EApuq+Ij6WDhqS3Qn33fqumTPrZWNOCiuTBlLoPfndlPs0kV/CgjbhuzHouTXFuF5n2GjPLtan8sZgYdW2a6Tq5QlY4qC1OmHIXsiKn6dd9eIN/sfR7O3vQTxJ1gOuXBPo9NZoLpg5w7QUyeco0wr3tots8dTTziZ4YYioqPfSDiHxvyMXH0dxkeudMBtJ0WTZ/a6tzsDciqHU3GbwKAlge11HjXB44xSVuKhdP9ToaDeHeR5P8uCDvzz349hSuv6sBNKkpt6H6vJLQOT40jAs4Cgo14nu6uORUD37weiyf406BNqXzV/Jbc9/nHH+x+UZ8LKVqeGnph+ePF2/jEq44naOem9dG9HYR5bJXHLinajVNed6ETHouZYO/OZ7b015jZrk2lT0Wy5rpOrlCVjiodRfBXBWC6U8Ke+MbeL2Pqx6SL+WzNl//YS+CRVUO4yo07uQwJ0u+6D+qLmCelrinRNknJ7aKNKYRV0NOlZIWH0e26nD2KdckXBXmQJUxWwpfUD0d87e9L211jkY3Hzmud+TW7/sq1QAsRXzj2ZPDP5OrYf+TXzuqrOQBpX+eF/WyGotvXv0AJt0jaCF//d951xZ3PdFOX05yszflNqyBOAD1e811D/enldzYe6/4iXuDdT27xr25Rj296uA1CWxtkJ0cD1HPt5uvr5LANgocvGPJb+70ePHZHc+2umxc8KKC7Tfu1Sv9f9aw9pZXVbeQH3R5583sZjyX5nluT3uNmfHaVOZYLG2WdVklKgLPKRi9cLYRdaDBf6gRdNyw2zVk9ht6j2CXEWgInel4INUo2jWgto3M8+sUWof8ctzvommiRtn+fOKG2vNplD2pp0r3iYXSKBJq5B/Y19FxFE1jv/vHnhJcjk3HpMOBTLpqqeNl9eltXA8uLQrS0U+jYHpHv4+OE/M7/xzWJrverLL1SXdMYqHpHl9/k3MrzrMLhqK8zuahavDzSO/6nh6S8zR/j+DNKzsErtu5c75wmWqI1y269oTzi9T4EtuwCHoZy5N0MJPLK4uGKC2K0iEoWU5uiNNmxDSh4yYw+Hl5qelGHTMLTucsvcx5SLY7k2969616GH+cu8Glz+jz3F/WdOdS6HoQG7WO/vqkhM/1MteY0LbOcm0qd8yWvzaVWpcZ6Hkt2oq/p1a3b72RU69t69bfbTmPXso+BV2t+KEr6YbQvyadSZlqxf1TOW5Gf1fDs0OR7oOrypJfJzMPOZeHaB56qtxy9uS718GBqQ6jqy3783k2kPfuxc5VaZS9clw15BRT9ShzHHVemCoWs7/AWh8PDyr1vXa16nh50U9XZ8cy6LTQ7eF1UwCXFnpoHtvqSd75CWA5UiVehm4rafO5ien8OdfvhJ7f6KYeNj9O/0rdqKXy7EKmqVF+fc01ZZoqeVNuQ/W5eyf3zTi5yafLRGyV4Vyer5sExWlTME1mn+vjVN/7ZangIJWXm+mC6efl+SqN09ulq3RGpcOBWnxVFtdUzMjtA7sv8+kwg1nPpTme29NeY2a5NpU6Ficw03VyRWzoyNZ9jukbwcBorDnSvZ5I93oi3euJdK8n0r2eSHesimUciyteUgsAAAAAQDGCWgAAAABAZRHUAgAAAAAqi6AWAAAAAFBZBLUAAAAAgMrauL29zXVFtbOz4z4BANaVuv67T6gL8ncAwFNY9D0Hr/RBjHSvJ9K9nkj3eiLd64l0ryfSHatiGcci1Y8BAAAAAJVFUAsAAAAAqCyCWgAAAABAZRHUAgAAAAAqi6AWAAAAAFBZBLUAAAAAgMoiqM2670p7oy3de/cdK+ZRuq82TNfg4WGytHu8aKvfnEnffrPz/mS/YTb9TwX70pxj49PM/N6b7uyb+0ORb2fBeWXnUzS/7HTti0f3F8XMO/13fxg5bfB46suZP82rrjr68tLrxHUJmAn5ez2R7ktg759SeaGn8H7ACf5d56UFeWM2nw0vt0w+m72njO4H0+y9YjJd8H6k1DqFzW/+c9yeKhoGFIyugZvhqdp2kdbw/M6NqpFqpPvD8PxApdHBufo0u4duS233qUr5+lpEutv9qtLpJLNn+6dmfKubpF407WnfjVBuTvR56KVL4HdpReeuO16y65HipploeVrx75JtcevlL//ufNjKjMttr2LGece53U/zuzbp9UT91Dfdyd/riXRfBpM/FdyXFd4POKP+bvLBzPj8PcO0+az73Zh81v7OG+fmPfo+JrBOBeY3//ltzyLo9V+04BKWseCV425G7ZA+AOqiGulOUDtv8033KNBzQ+aCbi6mubTLBJ7uAusHuVr4t5a9SOshe+7ai3x2Xinm3M+f86OWp+Uzi/CxmZ3Ormv2mLPrGWcqueBYy+ynGc033VEVtUx38nfSnXRfHJNnh/bv6PuB8X9XcvMuCBYz+XiZfDYU8OXy2YKAL33vWG6dguY4//ltz2Is41ik+rGmi/Sbx6ISWdRB4kZiLWSqaxRWZTEy1Y9dNdmzb5kqLKEqNBMtZ13p/bclh5encjN8EHUhzWl+GMrwr45suu8pPwZ2n2135Epd/452zdjx1L7f+6iWGTp37wfyXVrS2HbfA/r/HIucvJdOZpqR6yp9+drpBX832qMMfqj/TvalaUc4Tdk/Een9fW32wePgu/r3VPZT+2BT9n9X2dHH62B1IgAB5O/1RLovTf/PQ+kdtGU/lReOux8Yf79gqPuB9yc9Ofwzui/TebrKHV+mc1DZ3Vc5Zk+u/jU5aKl8dvCfysNz653JZ9Xyeuoeov1b+k5g87e2Gnss17rabql1KjDH+c9teyqMoFbbPdKPD+Tqdfj2FdVk2gyoTO20b2okqEFdOOVQtiYMOI+be+qqHc3jRk4/7qUC23ktp/o2pfOX3v6jTEYyzkAGl+q/XxsFAaTdx3sf1UX9XSbI1A8ezL4PL/Px3yt1ARe5euc9cEi1rbKZX+uXRu7BxKg2Jo8Xn9XlvyXn//OXqrb/nbp5ujyUr/FvXfCby2gKXKp9of6zmVND1FoFfJcBbcOAcsjf64l0X5K+XKu8ufX7fib/Hnc/UP5+oflS5asfP5dqE937T+egY7h8drRy+ez3wfi7vFLrVGB+85/f9qwyglpUkwoctrwAxA5+sBKVpN14JX7qIvrlXFrqt28naMCvn/Qm82jKkX7qG19g57ecuup/2gsEiI4LNLdy+1h7lO67Q+nlxidMcKi0v0QPHIby0BU5fBYFrTag7nW2ZONLQx7cNPrJ/nGzuPOJwlJacyN1ow6T6Jjck++6pCAu8d2Uxq/qv6hUOuaeLI+x2XjhPgEA8MRcKeKLxgIfHmw31B1CzwZl6rPOBXPBl1sPq1w+2/ilFQxwo/sGw1+2z5R4OqXWqcAc5z+37akwglpU08F5EoDEw1USZHy7VoFSoLrG9r60DyZ7cpa7WLuLgqnyMcfl1FFUAtvq/hGuxuuetpvS7x97KkhMevJ7vHhrqy59KH7Oa6oQ+8eFsvn6D1PV6fiLX5Ku5uNXNVbLvdHVlDpf4+XFitJcsb0Vf5bGXXRMPkj7bxUwe+vd/J994LHllfb3P+lqWO4LAABVYIKh0U18ZpYK6prypqvuwDpbXm2qvpw9O0wFZWXy2c3X71XOfyx7Xq266J4kZqo/6xp7XqGJqyGWKLdOQXOc//y2p7oIarHWdGlbujR30uAhcLF2F1jf7MupH32x1SWwuiR8fBUxV/qtLtifdempugi/Vb8tqnY8mnuK6z/RDFT1NVWeJF9lx7TBVVlHur2rotbpcy5A11WsbkxGY9Zb022G79S26Grs7ni5fqlLkFv27yPYtrYAADy9p8iTNl9fmfwyue+6lv1su9xS+WxTjnSTMq/m31v5I9cGWz8cv9Htep+55b0T+UP/zv1dG7tOOnB0y4iGqCbYXOZvzG97qoqgFmusJedxiVlmGFG6lxauppG+jM9jOfWiSzTLB7R5UVvZ1MME86TRXahDnXkFqWA2lSmMY9sP5TugSOSrYdllpErtdYbrHSe6+rSpIuTmW1SNyHqx2KfiAACU8FRNYnSQl9xr6YfbtilRqgbVmHzW0oFgMo2+HzGBeqYfDFvryw26Vpe5D0x3uDRynTLrogf/3mfm+cfmtz1VRFCL9VTY65ztyXiSl2KH2jHEvcfNcTl1oQNa0+lTv6ATD9OO1m8f7Zj9boPG9MXdDeZppHvAYB4muN6scx12+T0jup4BL6/kOlQim+3gyVz4s5lIWu54cRmP6YxKMVWUc+vkOttw09gbhWwp8aNc/53NkAEAeCJFbTTnyeW79oFxwb2VaRaU1Kwrk8/q2mJ+0yDL5bNRx5WuhDXbcaR9sB49YC63TkFznP/8tqfC1M1gTsHoeijzXqk1VY10d+/cKvGe2gfz3q30uz6z7y6z00Tfw+/zSh0P0TjvfWFllrPKFpPumX3phPZVXiCNo/0+Kt1D564Zl34nm00bfzr3Djh/3u53ufUcc33Iz9tti38suG1J5h06pvO/s/uueNmTWky6Y9XVOt3J3+uJdF+g9Ltfw8L3A4kxf8+kX/q+TQm9e7VUPptf99C9mxk35v6g1DoVmN/857c9i7CMa1BwCctY8Mri4rfiQhemEdzJGg+Z36UvFJkLa3RR7Nr/o3kEL1JjlrPK9PrOXyiTcsFj4RC48Hp/H5s5FJ27Lh2LlmO59fWmC13gywSWdhpvXqFjIbtOBZl5eh/M97qk54n6qXW6k7/XE+m+UCbPG3nPE7of8I3+u8kHM3/L5rPBgKxUPpu5LynYjjJ5cal1KjC/+c9ve+ZNL2vRNvQ/akEpun1aYDTWHOmeoatpPDuUF33bFmNdke71RLrXE+leT6R7PS0l3Rd5r2TmfSXtu/RbDFA9yzgWaVMLAAAAYHLbHflD98ybek3efPT/1O+iD7wTHgggqAUAAAAwFfP+dzmUt/PsHPPbmez9OJcH3iKBkqh+jBjpXk+kez2R7vVEutcT6V5PpDtWxTKORUpqAQAAAACVRVALAAAAAKisjdvb21xZ8M7OjvsEAFhX6vrvPqEuyN8BAE9h0fccwTa1P3/+lOfPn7tvqAvSvZ5I93oi3euJdK8n0r2eSHesimUci1Q/BgAAAABUFkEtAAAAAKCyCGoBAAAAAJVFUAsAAAAAqCyCWgAAAABAZRHUAgAAAAAqi6AWAAAAAFBZBLUAAAAAgMoiqAUAAAAAVBZBLQAAAACgsghqAQAAAACVRVALAAAAAKgsgloAAAAAQGUR1AIAAAAAKougFgAAAABQWQS1AAAAAIDKIqgFAAAAAFQWQS0AAAAAoLIIagEAAAAAlUVQCwAAAACoLIJaAAAAAEBlEdQCAAAAACqLoBYAAAAAUFkEtQAAAACAytq4vb0dus8AAGCN7ezsuE8AACyPijndp8XYGCruc+znz5/y/Plz9w11QbrXE+leT6R7PW1sbEgg2wcAYGGWkfdQ/RgAAAAAUFkEtQAAAACAyiKoBQAAAABUFkEtAAAAAKCyCGoBAAAAAJVFUAsAAAAAqCyCWgAAAKyP+660NzbMa0SKh7Z07930ixSvS7K8x4u2XYdXXXm0owDMiKAWAAAAAFBZBLUAAABYQy05vxvKcBgarqSz7SZbpO2OXC1zeUBNEdQCAACgnlLVg/tyFldP3pD2ha0c3P+UjMtXGU7/xgyf+u5vSqD6MYD5I6gFAABAzfXk8NmeHLtvWq/zVtqvNmTvoxuhXR7KWxfs2oA2/Rvj4146sAWwcAS1AAAAWEM6UM2UokZDKOg8uXFVk2/k1IzoSe/yVG7MuAc5PzAjpff3tSmtfbz4bAPa+HdDuTnRI5QfAzqBApaIoBYAAAC1d/qy6T41pOECWDnZFzt2U/Z/b5lPkc3XVzaY/dCMezROleoCWBqCWgAAAKyhER1FqUA0rSWNQEdOrV8a7lOA9+qgrU7PjQTwFAhqAQAAgIk8SvfdodhQNqqi7FU/BrBUBLUAAADARAYyuLSfWt03ropyX66pfgw8CYJaAAAArKERHUWp4eybm2wqTdl3pbK9zpabZ6AnZABLQVALAAAATKj5IekR2dC9IN+di+lO6vJKrnkvLbA0G0PdACDj58+f8vz5c/cNdUG61xPpXk+kez3p0qRAtg8AwMIsI++hpBYAAAAAUFkEtQAAAACAyiKoBQAAAABUFkEtAAAAAKCyCGoBAAAAAJW1cXt7SzeIAADUwM7OjvsEAMDyqJjTfVoMXumDGOleT6R7PZHu9cQrfeqJdK8n0h2rglf6AAAAAAAwAkEtAAAAAKCyCGoBAAAAAJVFUAsAAAAAqCyCWgAAAABAZRHUAgAAAAAqi6AWAAAsWV/ONjbMax7OvrlRBR4v2ma6jVddedQj7rvSdr8tHtrSvTc/X6x4XZLl5da3dh6l+8qmQ/ti9B6YOG1ru09XTXL+jhrGndtl9T+5eX7quzFVs9z9NU5ufwauY1VEUAsAAIDVd3koWwS2AAIIagEAQAW15PxuaF7onx+upLPtJluk7Y5cLXN5tRFI2/6p/ZMKbL8uqUQL4532M+nkDUe7biLEVmF/NT+4ZX5oujHrgaAWAACsiEw1vVmrG6aq1aXnHVWNjavi6SFXChioNuiv05pU21uOGdN2d19cWCvfB0kqxVWY3ZCv8hxIw0Bpb+o4MENBmgaqSIeqjebnd6bWpJ5S1V2/naX2Sy69Mvu3uAp7Us3dDpn08s/Nb9484+Mue1yE0ie7DDWEjtuSx0Q5yXqdfcss3y07fczn1zt7TmT3Ta768bpQkXrO7e2t+4Q6Id3riXSvJ9K9ngqy/SdwM1QBilmf074b5Y0LDgfnwwc92d35sGXGtYbnd+aHxeJpQ0Nr2DrIj291zVKUEetzcmMnCazLQ7dlp4nWdwXo9Vmeh+G526+l9qUeSqRtvF/VEB0zNyfePPwhSp8yaagUzkdO1RwS/jpkh2Rby89v0fQyFyN0/hYr3h92iOcx8nxVQ4l0HTcv8/fC5fjHXbljp9wxMcn+GrFcNbQOAssrtT7JtsXpEf1uxHk3L3p5i0ZJLQAAeHKPF5/l2Hzyqp7enatvRXpy+MwvjfCGUAnEyY2d5/DGlfj1pHd5Kuq2To17EBWI2bF/X5tSvHh94t8NRd0MWj8GuZI+FJtH2m51evZPB+fyRlfT/HYmex/1iCgN9eDS9uNnWzJ1P5Dv+ru/3KgaczSNSsnBDzNGVBCSno9a689xSWFfvkbr4B0TKogwo3qdt26ZXfmcXa9omWptBn5p4ho4bqbTKR4K2j6roC6zj9U8/rHna//PQ5XyWmjfJfqf9nLnZjTd8ZfActUxo8JLM93R7qN039nlJOkdpaM67v6MSkMDx2zu2Cl5THgm2l/xenvXp0uJ1ye+Hn28dqW10fqEzrPe2h17WQS1AADgiT3K9d/RzeH7pH3qdkf+cDeIszp9GbUfa0jD3SDKyb7YsZuy/3t6OZuvr+xN4YdmXJ3PBlGYzPzS1gQhf3VUaqm5Dmy4qgPPvTg4cMGOuoG/+leFCNsNeeG+2yC5Ld3tI5uucTvoTWn8aiZSQciWmU/7oiFHZpqhXL3WS1O+Xbt5q4DLa4u4+fq9C86iZUbtrI+kGVVLbdpf1l70QMJoyn4UlBl9uXbnV6v7xp2Xyu5RErwZyUMI+bjn0t3bx5dXcp0J3k7f2WPGGshABYZalN56iB+auABx8F/gmFXrkjp2yh4TU2r9vu/WOzlG5aAt+259mi+zAX/THbd6/Vw15mfRg4L1R1ALAABWRuuXhvs0jlcakR1yHaC0pBHdmHpGLstrJxff8GIms6ZtHGAqcdAxkrrJT5UI+yXASVvE5oekJEzzg52obWQcRB80JL0V3kMSw2sHWYOAIil5zQzu4UPKr438uIAXjVFTJUHpVOLS+1G80vsRx2z5YyIxyf4K7ocx+zBpyx094KkPgloAAPDEvNKy/wb2w5NKqiiaUhh345kuMUI5i0nbxi8uVPWqlvpDHADHJad68INXv2rxpnT+Sn4bVR/Vouqsmw1b5iuXKqiyn5x0kPV48VYO3fc4gAlUoUVWEgj6HYHlJdP51YeTIdsTeeaBVlx6XxRgHkmz5DFb9phYmrhKvrdvRlbzXy8EtQAA4MnFQUrcXk2578rbJyklTW5Kk6qQSfVITGYRaZsEFN4rfuLSddfba9zTbtT7qw5evfaJJmBJepuNetrVVc/jwDYKWFQwZMccy57XZttve9n+bTMpQfaq2vb/ofrxeH418K9xKbofqFnh6eIef8e+xzgJiv32t9kegYuO2aj2hinBL3lMLEtSJf9U3ruHOo//XlH9GAAAYFn8dmhxFdGR1TfznQn5w/Sv1NCS9n5JVdT6Veebl8nTtoTdN3FwGne+E80zagcZT+MfK1uuJLUl5//Tjyua8ibu2CffxjJ+qOG3AfbacibT/WGWGbdzVMH2lptmndtiF3Z8pIbi1/GENf8XlSp67aQD7ZFD00XpkG4/G7IpnXdFaRQdE2OO2eiBRcljwjfP/ZW1+Vu7cL/UAUEtAABYAbqTk6RHVOPkJlUVdJmy7SxN76ZRVb5AZzQYZRFpa6sM56qE63SK21QXTKODl7ukmqrpFCxQRVhX4fTb8ZrpctU5bfvfeLrdo8x26err0bE0W8dBa09XFc/sX50GufQzVcozx5OiqxMfxR1RjaA7fAqmo1912Xa6FDy+vPavpY6JZdH7JXUc2/WItiHqZXpdbQx1heuMnz9/yvPnz9031AXpXk+kez2R7vWkn9wHsn2sOdK9nkh3rIplHIuU1AIAAAAAKougFgAAAABQWQS1AAAAAIDKIqgFAAAAAFQWQS0AAAAAoLI2bm9v6RYNAIAa2NnZcZ8AAFgeFXO6T4vBK30QI93riXSvJ9K9nnjFRz2R7vVEumNV8EofAAAAAABGIKgFAAAAAFQWQS0AAAAAoLIIagEAAAAAlUVQCwAAAACoLIJaAAAAAEBlEdQCAID1d9+V9kZbuvfuO+qBdF9N385kw0uXx4u2+n4mffs1oC9nGxvm1TDpYXXTNr1Nj9J9pdb3U/EWrprxabJaCGoBAMCaUzfEzw6l576hLkj3lbV7JMPhlXS23fdCLhjc2JPv3QfzrtPU0H8hh8/031cv+Np8faXW8Uia7jsWi6AWAACsL1MitCfH7itqgnRfAzqg3ZLDX29MAHv1etON95jgeCg3J8eyV6FSRcwfQS0AAFhPOrBpHktLl/D0T91IrD3SvaRsld50Vd64+ql5QJBMd/ZN/dFU607GtS8e7Y8imb/npjHzHF11uP9JBbRyLg8fXFlnaj10AOvW/1Nfmh8e5PxABbbZ6r2Zdd941VWhcqL/yY7rm22NpnPrFdpuj90/yd8L95/7Xk5UMh2ep5Zbbmqb7T5pX/TT83HbbbY3Gldy3QaZ5aX3g13e2YWX3k9UxZqgFgAArCdXihMs4cH6It3HM0Hnnhyf2FJQPTx0RQ6fZYMoFSh+aciDm+bmRI1pqsDl2UDeu3H6wUGvs5UEO3rezw7lRd/9PTTNOGoenz+25PxLR3QqmkCu+V3O76L5iey5kvjTlzro3ZTOu1ORj9dxoGZ/cyyn8XqowFeFyVuZwFYuD2Xvv/fJNAc9W6XZ2+6Hbkttd7Jv9Ly3Oi/kxv1dDzcn+nezlBbrANEF8vFy02mig9KtjiT7YXgjpx/3csF6r7Mng3dumrtzaalt3FIB5+dfoirc7iFAdl/kHMuhv50qHXX6Z9PxuHMl7WidoocQS0ZQCwAAANRI/0/d1vhUbrwAZPP1Hzage+cHOklgqTVf2pLv077XVnR3X81J5PvA/srM++Bc3uyar9buGzVvFfz8Uy7ke/z3Snon722bWxXgvu30pNX9I2mD6+an168Rj9Pr8V0GJgDsy1f1G1FB+1G8Hirw/WIDvLepkmV/P2zK/u8t9X96uzd/a6sxvdS8W903qfayzf+peasg8Lps4J7xePFZ/Vqty1/ecl2aXP2r1tcE+nrf+22Rm3KkayOobfrqL9ff7u19aet9pdLkj/hBj9vOy4EM3JgwtR/u/LQ+sg82vmSC4SitnhBBLQAAAFAbfblWwZGc7Gc6MQoFOi+SoLGk5oehDKPALK7CuyWHl+bPJTzK9d8q5DYlsC7AVcHe+1TJ+6Y0ftX/F6zft2uvFNfjArzef14od9CQhvtYjgokh0lNgLhK74ydkg3+U7/OrYsKxP9yy7ofqPl7QXwk81BBa/0y2RYVy+9f82Dj8kquvRL9+S1vegS1AAAAQN3oaqtRO0g3bOnSzVmZqs1unlHbZlPd1f19LBVUX0bBmw1wCwNPf7wK+r67jxFTVdrbvsmC62J+u9Y9XU1aV73V1Xzd3yf3KIMf7mOBx0F265Zg4oD/6RDUAgAAADVjg03XDjI1zPIamkfpvrPVj6N2oXNp2/xrw5b8xmxpc+v3/Xi8KdE9aMt+XLLogs3UtrlhlnafcXXoaP+VeTXR7DYbL9ynJRpbPXl1ENQCAAAAtdGU/ROR3t/X6XaRStQbcHZ8ebqUVf2XDULvr+VqohLSqP2qq2b8Y5BaJ9v+VORFI1qKbed6+s5VezZVcl1b1JSod+Dpt9BWA/aXbdlq0tMqbuMap8l2Q4XpgW1yVa2z6zMfURvlRP8ftbTUw4PVQFALAAAA1Ijp1Ej3iOu/fuXbmezpjoiiwHAqDWnoasZeL8Rx6a37Np6dR9RG1Lbh9DpCUutpq0m7KsqmuvOefO8+eJ1CNeVNV4WAmR6X+590j8nZ9rkTMsFlptMrV3o7i83X79WaZXok9tNkuyPv9cOIzluvh2oVpDd1kJnpmGtu0h2H6WrXsx8ji0FQCwAAANSJCpCuotfBRO1N3StzksBwGrpjI/e6mGi+G1vm9TK619x0sFvEllrGJcm7R+6VOm5+/+y79qvu1TvP7OtkstWcN19fxa+gibZx74euFj1L9WpF7zu9fH/fmVccqf2p/ly2h2fbwZT/CiDdAZV77VA030ya6E647Gt+3N9dMB93zDWD/Ppop3L++1W8PtHrhGY7RhZjY6grg2f8/PlTnj9/7r6hLkj3eiLd64l0ryd9UxLI9rHmSPd6qna662rCe+q/CQIoXWL77FBEBXm8o3i1LONYpKQWAAAAwAqx71/Vpax+9eFCLqDtndwQ0NYUQS0AAACA1bJ7ZKoZfzfVh9teO1Lfo3Rfqb+7EtqZejVGpRHUAgAAAFg9pu3vUAW3bbmK25H6w5Zc/W5frUMJbb0R1AIAAABYXVFwGxgIZqER1AIAAAAAKmvj9vaW7vAAAKiBnZ0d9wkAgOVRMaf7tBi80gcx0r2eSPd6It3riXSvJ9K9nkh3rIplHItUPwYAAAAAVBZBLQAAAACgsghqAQAAAACVRVALAAAAAKgsgloAAAAAQGUR1AIAAAAAKougFgAAAABQWQS1AAAAAIDKIqgFAAAAAFQWQS0AAAAAoLIIagEAAAAAlUVQCwAAAACoLIJaAAAAAEBlEdQCAAAAACqLoBYAAAAAUFkEtQAAAACAyiKoBQAAAABUFkEtAAAAAKCyCGoBAAAAAJVFUAsAAAAAqCiR/wcN+vxOJrEI9gAAAABJRU5ErkJggg==;" vertex="1" parent="1">
          <mxGeometry x="1155" y="230" width="659" height="149.3" as="geometry" />
        </mxCell>
      </root>
    </mxGraphModel>
  </diagram>
</mxfile>
